<svg xmlns="http://www.w3.org/2000/svg" width="44" height="44" viewBox="0 0 44 44"><defs><style>.cls-1{fill:#62b7a6;}.cls-2{fill:#fff;}</style></defs><title>faviconRecurso 2</title><g id="Capa_2" data-name="Capa 2"><g id="Capa_1-2" data-name="Capa 1"><circle class="cls-1" cx="22" cy="22" r="22"/><path class="cls-2" d="M27.63,12.41a9.83,9.83,0,0,0-5.22-1.33,10.72,10.72,0,0,0-5.47,1.39,9.83,9.83,0,0,0-3.77,3.9A11.71,11.71,0,0,0,11.82,22a11.09,11.09,0,0,0,1.43,5.63,10.11,10.11,0,0,0,4,3.88,12,12,0,0,0,9.56.72,11.64,11.64,0,0,0,2.38-1.09l0,0,.19-.13.3-.21c.41-.28,1-.65,1.38-.88a5.44,5.44,0,0,1-1.19-.87,5.75,5.75,0,0,1-1.15-1.5,5.37,5.37,0,0,1-.31-.69l0-.06a4,4,0,0,1-1.09,1.39,7.65,7.65,0,0,1-1.79.86,7.81,7.81,0,0,1-2.45.43,7.71,7.71,0,0,1-5-1.69,6.94,6.94,0,0,1-2.49-4.45H30.38a1.81,1.81,0,0,0,1.29-.49,1.67,1.67,0,0,0,.51-1.24A12.34,12.34,0,0,0,31,16.15,8.86,8.86,0,0,0,27.63,12.41ZM15.51,20.25A7,7,0,0,1,17.76,16a6.77,6.77,0,0,1,4.65-1.58A5.74,5.74,0,0,1,26.61,16a7,7,0,0,1,2,4.21Z"/></g></g></svg>