<svg xmlns="http://www.w3.org/2000/svg" width="20" height="18.3" viewBox="0 0 20 18.3"><defs><style>.cls-1{fill:#f9f9f9;}</style></defs><title>cartRecurso 1</title><g id="Capa_2" data-name="Capa 2"><g id="Capa_1-2" data-name="Capa 1"><path class="cls-1" d="M15.84,13.32a2.49,2.49,0,1,0,2.49,2.49A2.5,2.5,0,0,0,15.84,13.32Zm0,3.49a1,1,0,1,1,1-1A1,1,0,0,1,15.84,16.81Z"/><path class="cls-1" d="M19.84,3.68a.75.75,0,0,0-.59-.29H4.62L3.94.57A.75.75,0,0,0,3.22,0H.75A.74.74,0,0,0,0,.75a.75.75,0,0,0,.75.75H2.63L5.06,11.67a.74.74,0,0,0,.73.57H17.43a.74.74,0,0,0,.73-.56L20,4.32A.77.77,0,0,0,19.84,3.68Zm-3,7.07H6.38L5,4.89H18.3Z"/><path class="cls-1" d="M6.78,13.32a2.49,2.49,0,1,0,2.5,2.49A2.5,2.5,0,0,0,6.78,13.32Zm0,3.49a1,1,0,1,1,1-1A1,1,0,0,1,6.78,16.81Z"/></g></g></svg>