<svg xmlns="http://www.w3.org/2000/svg" width="170.36" height="53.79" viewBox="0 0 170.36 53.79"><defs><style>.cls-1{fill:#9ce8d9;}</style></defs><title>logoRecurso 4</title><g id="Capa_2" data-name="Capa 2"><g id="Capa_1-2" data-name="Capa 1"><path class="cls-1" d="M96,8.36A18.57,18.57,0,0,0,98.16,12a13.41,13.41,0,0,0,2.77,2.82.37.37,0,0,0,.6-.26,13.27,13.27,0,0,0-.17-4,18.55,18.55,0,0,0-1.24-4.06A19.07,19.07,0,0,0,98,2.9,13.66,13.66,0,0,0,95.23.08a.37.37,0,0,0-.6.26,13.9,13.9,0,0,0,.17,4A19.37,19.37,0,0,0,96,8.36Z"/><path class="cls-1" d="M84,12.6a36.84,36.84,0,0,0,5.51,3.85,36.36,36.36,0,0,0,6.1,2.82,25.44,25.44,0,0,0,5.63,1.33.6.6,0,0,0,.54-1,25.75,25.75,0,0,0-4-4.19,36.77,36.77,0,0,0-5.51-3.84,37.62,37.62,0,0,0-6.11-2.81,25.93,25.93,0,0,0-5.62-1.34.6.6,0,0,0-.54,1A25.68,25.68,0,0,0,84,12.6Z"/><path class="cls-1" d="M73.65,29.79a13,13,0,0,0-6.51-1.64,13.2,13.2,0,0,0-6.59,1.64A11.57,11.57,0,0,0,56,34.35,13.52,13.52,0,0,0,54.43,41,13.44,13.44,0,0,0,56,47.6a11.54,11.54,0,0,0,4.51,4.55,13.1,13.1,0,0,0,6.59,1.64,13,13,0,0,0,6.56-1.64,11.62,11.62,0,0,0,4.49-4.55A13.44,13.44,0,0,0,79.8,41a13.32,13.32,0,0,0-1.63-6.65A11.79,11.79,0,0,0,73.65,29.79Zm.6,15.67a7.66,7.66,0,0,1-2.9,3.07,8.56,8.56,0,0,1-8.43,0A7.85,7.85,0,0,1,60,45.46a10,10,0,0,1,0-8.94,7.8,7.8,0,0,1,2.92-3.1,8.56,8.56,0,0,1,8.43,0,7.61,7.61,0,0,1,2.9,3.1,10.13,10.13,0,0,1,0,8.94Z"/><path class="cls-1" d="M129.12,24.37a2.19,2.19,0,0,0,1.61-.65l4.46-4.48a2.11,2.11,0,0,0,.65-1.62,2.35,2.35,0,0,0-.67-1.71,2.22,2.22,0,0,0-1.68-.69,2.27,2.27,0,0,0-1.66.69l-4.51,4.53a2.21,2.21,0,0,0-.55,1.57,2.34,2.34,0,0,0,.64,1.69A2.29,2.29,0,0,0,129.12,24.37Z"/><path class="cls-1" d="M18.56,29.73a11.53,11.53,0,0,0-6.13-1.58A12.62,12.62,0,0,0,6,29.79a11.53,11.53,0,0,0-4.42,4.58A13.66,13.66,0,0,0,0,41a13,13,0,0,0,1.68,6.6,11.88,11.88,0,0,0,4.67,4.55,13.82,13.82,0,0,0,6.77,1.64A14,14,0,0,0,17.57,53a14.2,14.2,0,0,0,2.8-1.29l0,.05.22-.15.35-.25c.48-.32,1.16-.77,1.62-1a6.7,6.7,0,0,1-1.4-1,7,7,0,0,1-1.35-1.76,8.6,8.6,0,0,1-.36-.81l0-.07a4.55,4.55,0,0,1-1.27,1.63,8.92,8.92,0,0,1-2.1,1,8.94,8.94,0,0,1-2.88.51,9,9,0,0,1-5.91-2,8.11,8.11,0,0,1-2.93-5.22h17.5A2.12,2.12,0,0,0,23.3,42a2,2,0,0,0,.6-1.46,14.55,14.55,0,0,0-1.38-6.47A10.32,10.32,0,0,0,18.56,29.73ZM4.33,38.92A8.29,8.29,0,0,1,7,34a7.88,7.88,0,0,1,5.45-1.85A6.72,6.72,0,0,1,17.36,34a8.15,8.15,0,0,1,2.3,4.94Z"/><path class="cls-1" d="M135.52,29.73a11.53,11.53,0,0,0-6.13-1.58A12.62,12.62,0,0,0,123,29.79a11.53,11.53,0,0,0-4.42,4.58A13.66,13.66,0,0,0,117,41a13,13,0,0,0,1.68,6.6,11.88,11.88,0,0,0,4.67,4.55,13.82,13.82,0,0,0,6.77,1.64,14,14,0,0,0,4.45-.78,13.64,13.64,0,0,0,2.9-1.35l-.07.09s1.39-1,2.19-1.43a6.7,6.7,0,0,1-1.4-1,6.93,6.93,0,0,1-1.33-1.73h0v0a7.32,7.32,0,0,1-.35-.81l0-.07a4.48,4.48,0,0,1-1.14,1.52,8.81,8.81,0,0,1-2.3,1.13,9.3,9.3,0,0,1-8.79-1.48,8.11,8.11,0,0,1-2.93-5.22h17.5a2.12,2.12,0,0,0,1.52-.57,2,2,0,0,0,.6-1.46,14.55,14.55,0,0,0-1.38-6.47A10.32,10.32,0,0,0,135.52,29.73Zm-14.23,9.19A8.29,8.29,0,0,1,123.94,34a7.88,7.88,0,0,1,5.45-1.85A6.72,6.72,0,0,1,134.32,34a8.15,8.15,0,0,1,2.3,4.94Z"/><path class="cls-1" d="M39.69,32.31a8,8,0,0,1,3.11.58,6.82,6.82,0,0,1,1.63,1A6.41,6.41,0,0,1,46,36.1a6.66,6.66,0,0,1,.56-1A7.69,7.69,0,0,1,48,33.51a8,8,0,0,1,1.36-.93C48.6,32,47.43,31,47.43,31l.06.09a11.31,11.31,0,0,0-7.8-2.92,12.72,12.72,0,0,0-6.44,1.64,11.47,11.47,0,0,0-4.45,4.58A13.66,13.66,0,0,0,27.21,41a13.16,13.16,0,0,0,1.64,6.53,11.85,11.85,0,0,0,4.53,4.6,12.93,12.93,0,0,0,6.54,1.66,11.68,11.68,0,0,0,8.29-3.09,1.73,1.73,0,0,0,.55-1.25,2.16,2.16,0,0,0-.87-1.66,2,2,0,0,0-1.2-.42A2.88,2.88,0,0,0,45,48a7.63,7.63,0,0,1-5.07,1.62,8.2,8.2,0,0,1-4.26-1.11,7.66,7.66,0,0,1-2.9-3.07,9.43,9.43,0,0,1-1-4.46,8.88,8.88,0,0,1,2.21-6.31A7.5,7.5,0,0,1,39.69,32.31Z"/><path class="cls-1" d="M110.43,30.94a25.06,25.06,0,0,1,.32-2.73h-.35c-.71,0-1.43.05-2.14.05l-2.14-.09-.67,0a20.88,20.88,0,0,1,.27,2.65v1.57a11.14,11.14,0,0,0-3.91-3.1,11.66,11.66,0,0,0-11,.56,11.67,11.67,0,0,0-4.24,4.59A13.84,13.84,0,0,0,85.05,41a13,13,0,0,0,1.66,6.54,12.17,12.17,0,0,0,4.58,4.62,12.74,12.74,0,0,0,6.47,1.68A12.54,12.54,0,0,0,110.2,43.5c.14-.59.33-1.34.49-1.8l-.29,0c-.71,0-1.43,0-2.14,0l-2.14-.09-.55,0a9.62,9.62,0,0,1-.22,2.61,9.61,9.61,0,0,1-.5,1.14,8,8,0,0,1-2.92,3.11,8.2,8.2,0,0,1-8.34,0,8.18,8.18,0,0,1-3-3.11A9.17,9.17,0,0,1,89.56,41a9,9,0,0,1,1.08-4.41,8.29,8.29,0,0,1,3-3.1,8.26,8.26,0,0,1,8.34,0,8.07,8.07,0,0,1,2.92,3.1,9,9,0,0,1,.54,1.23,6.46,6.46,0,0,1-.07,2.82,6.74,6.74,0,0,1,.86-.3,7.65,7.65,0,0,1,2.1-.26,7.82,7.82,0,0,1,2.08.31c.12,0,.24.08.36.12a24.81,24.81,0,0,1-.29-2.83V30.94Z"/><path class="cls-1" d="M108.26,16.5l-2.14-.08-.71-.05a21.07,21.07,0,0,1,.32,2.95v.43a.68.68,0,0,0,0,.14V24.3a20.48,20.48,0,0,1-.34,2.77,7.52,7.52,0,0,1,.8-.27,7.65,7.65,0,0,1,2.1-.26,7.82,7.82,0,0,1,2.08.31l.35.11a24.52,24.52,0,0,1-.28-2.77V21.46s0-.08,0-.12v-2a22.48,22.48,0,0,1,.35-2.88l-.38,0C109.69,16.49,109,16.5,108.26,16.5Z"/><path class="cls-1" d="M108.28,14.77a8.72,8.72,0,0,1,2.08.31l.31.1c-.15-.86-.24-2.6-.24-2.6V11.17a2.35,2.35,0,1,0-4.69,0v1.41a27.13,27.13,0,0,1-.31,2.71,6.81,6.81,0,0,1,.76-.26A8.05,8.05,0,0,1,108.28,14.77Z"/><path class="cls-1" d="M170,49.65l0,.15V39.94a13.36,13.36,0,0,0-1.43-6.4,9.79,9.79,0,0,0-4-4.05,11.74,11.74,0,0,0-5.71-1.38,11.54,11.54,0,0,0-4.33.81,10.3,10.3,0,0,0-3.5,2.28v-.5a2.22,2.22,0,0,0-2.35-2.36,2.34,2.34,0,0,0-1.68.65,2.29,2.29,0,0,0-.67,1.71V50A11.63,11.63,0,0,1,146,52.7a7.47,7.47,0,0,1,.87-.3,7.65,7.65,0,0,1,2.1-.26,7.82,7.82,0,0,1,2.08.31l.4.13a21.31,21.31,0,0,1-.32-2.93l0,.11V38.27a5.25,5.25,0,0,1,.9-3,6.35,6.35,0,0,1,2.49-2.13,7.84,7.84,0,0,1,3.52-.78,7.38,7.38,0,0,1,5.32,1.92,7.48,7.48,0,0,1,2,5.66V50a13.9,13.9,0,0,1-.37,2.62,7.32,7.32,0,0,1,.75-.25,7.67,7.67,0,0,1,2.11-.26,7.94,7.94,0,0,1,2.08.31l.48.16A20.88,20.88,0,0,1,170,49.65Z"/></g></g></svg>