<svg xmlns="http://www.w3.org/2000/svg" width="188.36" height="59.48" viewBox="0 0 188.36 59.48"><defs><style>.cls-1{fill:#fff;}</style></defs><title>logoRecurso 1</title><g id="Capa_2" data-name="Capa 2"><g id="Capa_1-2" data-name="Capa 1"><path class="cls-1" d="M106.19,9.24a20.78,20.78,0,0,0,2.34,4.08,15,15,0,0,0,3.07,3.11.41.41,0,0,0,.66-.29,14.65,14.65,0,0,0-.19-4.37,20.76,20.76,0,0,0-1.37-4.5,21.58,21.58,0,0,0-2.35-4.07A15.26,15.26,0,0,0,105.29.08a.41.41,0,0,0-.66.29,15,15,0,0,0,.19,4.37A20.59,20.59,0,0,0,106.19,9.24Z"/><path class="cls-1" d="M92.9,13.93A41.4,41.4,0,0,0,99,18.19a40.15,40.15,0,0,0,6.75,3.11A28.13,28.13,0,0,0,112,22.78a.66.66,0,0,0,.6-1.05,28.31,28.31,0,0,0-4.43-4.63A40.87,40.87,0,0,0,102,12.84a42.56,42.56,0,0,0-6.75-3.1,28.7,28.7,0,0,0-6.22-1.48.67.67,0,0,0-.6,1.05A29.08,29.08,0,0,0,92.9,13.93Z"/><path class="cls-1" d="M81.44,32.94a14.33,14.33,0,0,0-7.21-1.81A14.54,14.54,0,0,0,67,32.94a12.84,12.84,0,0,0-5,5,14.93,14.93,0,0,0-1.78,7.36A14.78,14.78,0,0,0,62,52.63a12.71,12.71,0,0,0,5,5,15.43,15.43,0,0,0,14.54,0,12.76,12.76,0,0,0,5-5,14.78,14.78,0,0,0,1.78-7.3A14.73,14.73,0,0,0,86.42,38,13,13,0,0,0,81.44,32.94Zm.66,17.32a8.55,8.55,0,0,1-3.21,3.4,9.51,9.51,0,0,1-9.32,0,8.67,8.67,0,0,1-3.23-3.4,10.23,10.23,0,0,1-1.17-4.93,10.41,10.41,0,0,1,1.17-5A8.66,8.66,0,0,1,69.57,37a9.51,9.51,0,0,1,9.32,0,8.54,8.54,0,0,1,3.21,3.42,10.63,10.63,0,0,1,1.14,5A10.45,10.45,0,0,1,82.1,50.26Z"/><path class="cls-1" d="M142.76,26.94a2.44,2.44,0,0,0,1.78-.71l4.94-5a2.34,2.34,0,0,0,.71-1.79,2.63,2.63,0,0,0-.74-1.89,2.47,2.47,0,0,0-1.86-.76,2.49,2.49,0,0,0-1.83.76l-5,5a2.49,2.49,0,0,0-.61,1.74,2.58,2.58,0,0,0,.71,1.86A2.53,2.53,0,0,0,142.76,26.94Z"/><path class="cls-1" d="M20.52,32.87a12.75,12.75,0,0,0-6.77-1.74,13.93,13.93,0,0,0-7.11,1.81A12.78,12.78,0,0,0,1.76,38,15.16,15.16,0,0,0,0,45.33a14.31,14.31,0,0,0,1.86,7.3,13,13,0,0,0,5.17,5,15.44,15.44,0,0,0,12.39,1,15.3,15.3,0,0,0,3.1-1.42l-.05.05.25-.17c.13-.08.26-.18.39-.27.53-.36,1.28-.85,1.79-1.14a7.79,7.79,0,0,1-1.55-1.13,7.59,7.59,0,0,1-1.49-1.94,9,9,0,0,1-.39-.9l0-.08A5.25,5.25,0,0,1,20,53.42a10.52,10.52,0,0,1-2.33,1.1,9.72,9.72,0,0,1-3.18.57A10,10,0,0,1,8,52.89a9,9,0,0,1-3.24-5.77H24.08a2.34,2.34,0,0,0,1.68-.64,2.15,2.15,0,0,0,.66-1.61,16.16,16.16,0,0,0-1.52-7.15A11.39,11.39,0,0,0,20.52,32.87ZM4.79,43a9.14,9.14,0,0,1,2.92-5.46,8.77,8.77,0,0,1,6-2,7.41,7.41,0,0,1,5.44,2A9,9,0,0,1,21.74,43Z"/><path class="cls-1" d="M149.83,32.87a12.72,12.72,0,0,0-6.77-1.74,13.92,13.92,0,0,0-7.1,1.81A12.74,12.74,0,0,0,131.07,38a15.16,15.16,0,0,0-1.75,7.33,14.31,14.31,0,0,0,1.86,7.3,13,13,0,0,0,5.16,5A16,16,0,0,0,152,57.12l-.08.1s1.54-1.09,2.43-1.58a7.67,7.67,0,0,1-3-3h0a6.77,6.77,0,0,1-.4-.91l0-.07a5.12,5.12,0,0,1-1.27,1.68A9.55,9.55,0,0,1,147,54.52a9.72,9.72,0,0,1-3.18.57,10,10,0,0,1-6.54-2.2,9,9,0,0,1-3.24-5.77H153.4a2.34,2.34,0,0,0,1.68-.64,2.15,2.15,0,0,0,.66-1.61,16,16,0,0,0-1.53-7.15A11.27,11.27,0,0,0,149.83,32.87ZM134.1,43A9.2,9.2,0,0,1,137,37.57a8.75,8.75,0,0,1,6-2,7.43,7.43,0,0,1,5.45,2A9.09,9.09,0,0,1,151.06,43Z"/><path class="cls-1" d="M43.89,35.73a8.78,8.78,0,0,1,3.43.63,7.47,7.47,0,0,1,1.8,1.12,6.66,6.66,0,0,1,1.73,2.43A8.64,8.64,0,0,1,54.56,36c-.83-.62-2.12-1.78-2.12-1.78l.07.1a12.51,12.51,0,0,0-8.62-3.22,14,14,0,0,0-7.13,1.81A12.65,12.65,0,0,0,31.85,38a15,15,0,0,0-1.76,7.33,14.56,14.56,0,0,0,1.81,7.23,13.08,13.08,0,0,0,5,5.08,14.24,14.24,0,0,0,7.23,1.84,12.93,12.93,0,0,0,9.17-3.42,1.94,1.94,0,0,0,.61-1.38,2.39,2.39,0,0,0-1-1.84,2.14,2.14,0,0,0-1.32-.46,3.23,3.23,0,0,0-1.89.71,8.38,8.38,0,0,1-5.6,1.79,9.13,9.13,0,0,1-4.71-1.22,8.55,8.55,0,0,1-3.21-3.4,10.45,10.45,0,0,1-1.14-4.93,9.82,9.82,0,0,1,2.44-7A8.27,8.27,0,0,1,43.89,35.73Z"/><path class="cls-1" d="M122.1,34.2s.15-2.12.35-3l-.39,0c-.79,0-1.57,0-2.36,0s-1.58-.05-2.36-.09l-.74,0a25.62,25.62,0,0,1,.3,2.92v1.74A12.78,12.78,0,0,0,100.43,33a12.86,12.86,0,0,0-4.69,5.08A15.24,15.24,0,0,0,94,45.28a14.5,14.5,0,0,0,1.83,7.23,13.4,13.4,0,0,0,5.06,5.1,14,14,0,0,0,7.16,1.87,13.76,13.76,0,0,0,12.14-7,13.89,13.89,0,0,0,1.61-4.42c.15-.64.37-1.48.54-2h-.32c-.79,0-1.57.05-2.36.05s-1.58-.05-2.36-.09l-.62,0a10.72,10.72,0,0,1-.24,2.89,9.29,9.29,0,0,1-.55,1.25,9,9,0,0,1-12.45,3.45,9,9,0,0,1-3.26-3.45A10,10,0,0,1,99,45.28a9.91,9.91,0,0,1,1.19-4.88A9,9,0,0,1,103.48,37a9.13,9.13,0,0,1,9.22,0,8.79,8.79,0,0,1,3.23,3.42,9.63,9.63,0,0,1,.59,1.36,6.92,6.92,0,0,1-.08,3.12,7.68,7.68,0,0,1,1-.33,8.55,8.55,0,0,1,2.33-.29,9.08,9.08,0,0,1,2.3.34l.4.13a27.11,27.11,0,0,1-.32-3.12V34.2Z"/><path class="cls-1" d="M119.7,18.24c-.79,0-1.58,0-2.36-.09l-.8,0a22.26,22.26,0,0,1,.36,3.27v.47c0,.05,0,.1,0,.15v4.88a24,24,0,0,1-.39,3.06,8.32,8.32,0,0,1,.88-.3,8.16,8.16,0,0,1,2.33-.28,9.06,9.06,0,0,1,2.3.33l.38.13a28.74,28.74,0,0,1-.3-3.07v-3s0-.08,0-.13V21.36a25.2,25.2,0,0,1,.39-3.18l-.43,0C121.27,18.23,120.49,18.24,119.7,18.24Z"/><path class="cls-1" d="M119.72,16.34a9.06,9.06,0,0,1,2.3.33l.34.12c-.17-1-.26-2.88-.26-2.88V12.35a2.6,2.6,0,1,0-5.19,0v1.56a29.2,29.2,0,0,1-.34,3c.28-.11.56-.2.83-.28A8.16,8.16,0,0,1,119.72,16.34Z"/><path class="cls-1" d="M188,54.89l0,.17V44.15a14.79,14.79,0,0,0-1.58-7.07A10.73,10.73,0,0,0,182,32.61a13.59,13.59,0,0,0-11.1-.64A11.45,11.45,0,0,0,167,34.5v-.56a2.6,2.6,0,1,0-5.19,0V55.23a12.51,12.51,0,0,1-.46,3,7.81,7.81,0,0,1,1-.33,8.55,8.55,0,0,1,2.33-.29A8.71,8.71,0,0,1,167,58l.44.14a23.54,23.54,0,0,1-.35-3.24l0,.13V42.32A5.75,5.75,0,0,1,168,39a6.83,6.83,0,0,1,2.75-2.35,8.62,8.62,0,0,1,3.89-.87,8.13,8.13,0,0,1,5.88,2.12c1.48,1.41,2.22,3.5,2.22,6.25V55.32a15.6,15.6,0,0,1-.42,2.9c.28-.11.56-.2.84-.28a8.48,8.48,0,0,1,2.32-.29,8.65,8.65,0,0,1,2.3.34q.27.07.54.18A23.55,23.55,0,0,1,188,54.89Z"/></g></g></svg>